{"title":"Chris Brown featuring Tyga &amp; Kevin McCall - Deuces HD 720p(RaHuL","uid":6490388,"size":136951785,"categoryP":"video","categoryS":"music_videos","magnet":"?xt=urn:btih:4abfee6a481b48537e272eb2d915cc468093acba&amp;dn=Chris+Brown+featuring+Tyga+%26+Kevin+McCall+-+Deuces+HD+720p%28RaHuL&amp;tr=udp%3A%2F%2Ftracker.openbittorrent.com%3A80&amp;tr=udp%3A%2F%2Fopen.demonii.com%3A1337&amp;tr=udp%3A%2F%2Ftracker.coppersurfer.tk%3A6969&amp;tr=udp%3A%2F%2Fexodus.desync.com%3A6969","seeders":1,"leechers":0,"uploader":"AliBaloch","files":12,"time":1308859202,"description":" &lt;a href=&quot;http://img806.imageshack.us/img806/4935/rahulcase.png&quot; rel=&quot;nofollow&quot; target=&quot;_NEW&quot;&gt;http://img806.imageshack.us/img806/4935/rahulcase.png&lt;/a&gt;\n\n::General::\nComplete name                    : Chris Brown featuring Tyga &amp; Kevin McCall - Deuces HD 720p(RaHuL {tHe HuNk})[Silver RG]Chris Brown featuring Tyga &amp; Kevin McCall - Deuces HD 720p(RaHuL {tHe HuNk})[Silver RG].mp4\nFormat                           : MPEG-4\nFormat profile                   : Base Media\nCodec ID                         : isom\nFile size                        : 129 MiB\nDuration                         : 4mn 38s\nOverall bit rate                 : 3 889 Kbps\nWriting application              : Lavf52.71.0\n\n\n::Video::\nID                               : 1\nFormat                           : MPEG-4 Visual\nFormat profile                   : Simple@L1\nFormat settings, BVOP            : No\nFormat settings, QPel            : No\nFormat settings, GMC             : No warppoints\nFormat settings, Matrix          : Default (H.263)\nCodec ID                         : 20\nDuration                         : 4mn 38s\nBit rate mode                    : Variable\nBit rate                         : 3 732 Kbps\nWidth                            : 1 280 pixels\nHeight                           : 720 pixels\nDisplay aspect ratio             : 16:9\nFrame rate mode                  : Variable\nFrame rate                       : 23.830 fps\nMinimum frame rate               : 11.985 fps\nMaximum frame rate               : 23.970 fps\nColor space                      : YUV\nChroma subsampling               : 4:2:0\nBit depth                        : 8 bits\nScan type                        : Progressive\nCompression mode                 : Lossy\nBits/(Pixel*Frame)               : 0.170\nStream size                      : 124 MiB (96%)\nWriting library                  : Lavc52.78.0\n\n\n::Audio::\nID                               : 2\nFormat                           : AAC\nFormat/Info                      : Advanced Audio Codec\nFormat profile                   : LC\nCodec ID                         : 40\nDuration                         : 4mn 38s\nBit rate mode                    : Constant\nBit rate                         : 160 Kbps\nChannel(s)                       : 2 channels\nChannel positions                : Front: L R\nSampling rate                    : 48.0 KHz\nCompression mode                 : Lossy\nStream size                      : 5.28 MiB (4%)\n\n:: Trackers :: &lt;a href=&quot;\nhttp://exodus.1337x.org/announce&quot; rel=&quot;nofollow&quot; target=&quot;_NEW&quot;&gt;\nhttp://exodus.1337x.org/announce&lt;/a&gt; &lt;a href=&quot;\nhttp://tracker.publicbt.com/announce&quot; rel=&quot;nofollow&quot; target=&quot;_NEW&quot;&gt;\nhttp://tracker.publicbt.com/announce&lt;/a&gt; &lt;a href=&quot;\nhttp://genesis.1337x.org:1337/announce&quot; rel=&quot;nofollow&quot; target=&quot;_NEW&quot;&gt;\nhttp://genesis.1337x.org:1337/announce&lt;/a&gt; &lt;a href=&quot;\nhttp://exodus.1337x.org:1337/announce&quot; rel=&quot;nofollow&quot; target=&quot;_NEW&quot;&gt;\nhttp://exodus.1337x.org:1337/announce&lt;/a&gt; &lt;a href=&quot;\nhttp://pow7.com/announce&quot; rel=&quot;nofollow&quot; target=&quot;_NEW&quot;&gt;\nhttp://pow7.com/announce&lt;/a&gt; &lt;a href=&quot;\nhttp://tracker.publicbt.com:80/announce&quot; rel=&quot;nofollow&quot; target=&quot;_NEW&quot;&gt;\nhttp://tracker.publicbt.com:80/announce&lt;/a&gt; &lt;a href=&quot;\nhttp://tracker.publicbt.com/announce&quot; rel=&quot;nofollow&quot; target=&quot;_NEW&quot;&gt;\nhttp://tracker.publicbt.com/announce&lt;/a&gt; &lt;a href=&quot;\nhttp://nemesis.1337x.org/announce&quot; rel=&quot;nofollow&quot; target=&quot;_NEW&quot;&gt;\nhttp://nemesis.1337x.org/announce&lt;/a&gt;\n\n::Screen:: &lt;a href=&quot;\nhttp://img864.imageshack.us/img864/7788/chrisbrownfeaturingtyga.jpg&quot; rel=&quot;nofollow&quot; target=&quot;_NEW&quot;&gt;\nhttp://img864.imageshack.us/img864/7788/chrisbrownfeaturingtyga.jpg&lt;/a&gt;\n\n::Note::\nMake sure its real Silver RG Release From Silvertorrents.me","torrent":{"xt":"urn:btih:4abfee6a481b48537e272eb2d915cc468093acba","amp;dn":"Chris+Brown+featuring+Tyga+%26+Kevin+McCall+-+Deuces+HD+720p%28RaHuL","amp;tr":["udp%3A%2F%2Ftracker.openbittorrent.com%3A80","udp%3A%2F%2Fopen.demonii.com%3A1337","udp%3A%2F%2Ftracker.coppersurfer.tk%3A6969","udp%3A%2F%2Fexodus.desync.com%3A6969"],"infoHash":"4abfee6a481b48537e272eb2d915cc468093acba","infoHashBuffer":{"type":"Buffer","data":[74,191,238,106,72,27,72,83,126,39,46,178,217,21,204,70,128,147,172,186]},"announce":[],"urlList":[]}}